<?xml version="1.0" encoding="UTF-8" standalone="no"?>
<!-- Created with Inkscape (http://www.inkscape.org/) -->

<svg
   xmlns:dc="http://purl.org/dc/elements/1.1/"
   xmlns:cc="http://creativecommons.org/ns#"
   xmlns:rdf="http://www.w3.org/1999/02/22-rdf-syntax-ns#"
   xmlns:svg="http://www.w3.org/2000/svg"
   xmlns="http://www.w3.org/2000/svg"
   xmlns:xlink="http://www.w3.org/1999/xlink"
   xmlns:sodipodi="http://sodipodi.sourceforge.net/DTD/sodipodi-0.dtd"
   xmlns:inkscape="http://www.inkscape.org/namespaces/inkscape"
   width="31.726084mm"
   height="22.630695mm"
   viewBox="0 0 112.41526 80.187503"
   id="svg4518"
   version="1.1"
   inkscape:version="0.91 r13725"
   sodipodi:docname="logo_by_cdx.svg">
  <defs
     id="defs4520">
    <linearGradient
       inkscape:collect="always"
       xlink:href="#linearGradient5197-2"
       id="linearGradient4479"
       gradientUnits="userSpaceOnUse"
       gradientTransform="matrix(3.2685856,0,0,3.2685856,-2207.8621,-699.27358)"
       x1="707.29095"
       y1="247.35567"
       x2="707.29095"
       y2="232.19633" />
    <linearGradient
       id="linearGradient5197-2">
      <stop
         id="stop5199-4"
         style="stop-color:#ff6701;stop-opacity:1"
         offset="0" />
      <stop
         id="stop5201-5"
         style="stop-color:#ffc965;stop-opacity:1;"
         offset="1" />
    </linearGradient>
  </defs>
  <sodipodi:namedview
     id="base"
     pagecolor="#ffffff"
     bordercolor="#666666"
     borderopacity="1.0"
     inkscape:pageopacity="0.0"
     inkscape:pageshadow="2"
     inkscape:zoom="7.9195959"
     inkscape:cx="54.600981"
     inkscape:cy="26.239092"
     inkscape:document-units="px"
     inkscape:current-layer="layer1"
     showgrid="false"
     fit-margin-top="2"
     fit-margin-right="2"
     fit-margin-bottom="2"
     fit-margin-left="2"
     inkscape:window-width="1920"
     inkscape:window-height="1002"
     inkscape:window-x="0"
     inkscape:window-y="25"
     inkscape:window-maximized="1" />
  <metadata
     id="metadata4523">
    <rdf:RDF>
      <cc:Work
         rdf:about="">
        <dc:format>image/svg+xml</dc:format>
        <dc:type
           rdf:resource="http://purl.org/dc/dcmitype/StillImage" />
        <dc:title></dc:title>
      </cc:Work>
    </rdf:RDF>
  </metadata>
  <g
     inkscape:label="Layer 1"
     inkscape:groupmode="layer"
     id="layer1"
     transform="translate(-50.710057,-34.543635)">
    <path
       id="path4473"
       style="color:#000000;font-style:normal;font-variant:normal;font-weight:bold;font-stretch:normal;font-size:22.71930695px;line-height:125%;font-family:'Droid Sans';-inkscape-font-specification:'Droid Sans Bold';text-indent:0;text-align:start;text-decoration:none;text-decoration-line:none;letter-spacing:0px;word-spacing:0px;text-transform:none;direction:ltr;block-progression:tb;writing-mode:lr-tb;baseline-shift:baseline;text-anchor:start;display:inline;overflow:visible;visibility:visible;fill:url(#linearGradient4479);fill-opacity:1;stroke:none;stroke-width:1.91701519;marker:none;enable-background:accumulate"
       d="m 103.60011,81.733347 c 0.81426,3e-5 1.24613,0.164001 1.52409,0.320978 0.33018,0.18638 0.63822,0.43118 0.88241,0.882347 0.26546,0.490641 0.48418,1.173713 0.64174,2.165855 0.1643,1.034824 0.24064,2.333726 0.24064,3.770146 l 0,0.882403 c -0.0184,1.306257 -0.14346,2.423971 -0.32095,3.288842 -0.17351,0.845655 -0.39237,1.446995 -0.64178,1.845003 -0.22592,0.360521 -0.40938,0.489519 -0.7219,0.641712 -0.30887,0.150509 -0.86024,0.32098 -1.60437,0.32098 -1.14388,0 -1.33826,-0.204156 -1.84497,-1.123044 -0.52878,-0.958762 -1.04279,-2.949591 -1.04279,-5.855775 0,-2.908644 0.48409,-4.942296 1.04279,-6.016222 0.52363,-1.006582 0.76148,-1.123015 1.84497,-1.123015 z M 75.203567,69.781156 c -2.441628,0 -4.721703,0.252285 -6.818377,0.882377 -2.185853,0.656913 -4.109056,1.794423 -5.69534,3.369097 -1.622519,1.610706 -2.882949,3.675445 -3.689922,6.096407 -0.827375,2.482209 -1.203257,5.389101 -1.203257,8.743544 0,3.064816 0.400346,5.795384 1.203257,8.182046 0.790574,2.350156 2.013333,4.396553 3.609706,6.016263 1.569212,1.5921 3.451455,2.78958 5.615142,3.5295 2.127358,0.72748 4.475183,1.04277 6.978791,1.04277 0.919157,0 1.808918,0.0184 2.647153,-0.08 0.832078,-0.0975 1.621851,-0.28231 2.4065,-0.48129 0.781768,-0.19803 1.564277,-0.41721 2.326243,-0.72194 0.724415,-0.28998 1.41462,-0.67742 2.165858,-1.04283 a 2.4606565,2.4606565 0 0 0 1.443899,-2.16582 l 0,-7.219457 a 2.4606565,2.4606565 0 0 0 -3.529504,-2.246052 c -1.314143,0.621544 -2.618103,1.133619 -3.850395,1.524086 -1.071999,0.339742 -2.330686,0.481304 -3.770199,0.481304 -1.418086,0 -1.795129,-0.273431 -2.326271,-1.123016 -0.538934,-0.862262 -1.042792,-2.750125 -1.042792,-5.695331 0,-2.965624 0.45969,-5.030758 1.042792,-6.016222 0.54285,-0.917418 1.003827,-1.203232 2.486716,-1.203295 0.76831,6.3e-5 1.605376,0.189749 2.566936,0.481362 1.052166,0.319017 2.195254,0.687511 3.369064,1.203224 a 2.4606565,2.4606565 0 0 0 3.288869,-1.363826 l 2.486687,-6.577706 A 2.4606565,2.4606565 0 0 0 85.711888,72.267937 C 84.116841,71.4598 82.443745,70.864074 80.658261,70.422929 78.857091,69.977989 77.036427,69.781216 75.203567,69.781186 Z M 108.25266,57.909184 a 2.4606565,2.4606565 0 0 0 -1.9252,2.406466 l 0,10.187408 c 0,0.203543 -0.006,0.431891 0,0.641747 -0.68983,-0.354424 -1.31668,-0.748947 -2.08564,-0.962571 -1.09879,-0.305315 -2.31455,-0.401078 -3.5295,-0.401078 -2.015387,0 -3.953933,0.400808 -5.695337,1.283455 -1.759661,0.891884 -3.21524,2.255308 -4.41188,3.930586 -1.207128,1.689954 -2.126719,3.649269 -2.727384,5.936019 -0.609003,2.318463 -0.882346,4.965167 -0.882346,7.861111 0,2.86039 0.273437,5.393332 0.882346,7.700814 0.598767,2.269042 1.47228,4.265859 2.647166,5.935969 1.163985,1.65474 2.613872,3.03543 4.331654,3.93062 1.708906,0.89056 3.629692,1.28343 5.615151,1.28343 1.25347,0 2.41805,-0.0766 3.5295,-0.40105 1.0343,-0.30226 2.00701,-0.73767 2.88777,-1.28346 0.51471,-0.31902 0.91422,-0.80458 1.3637,-1.20326 l 0.32098,0.80218 a 2.4606565,2.4606565 0 0 0 2.24605,1.52409 l 6.65796,0 a 2.4606565,2.4606565 0 0 0 2.4065,-1.92519 2.4606565,2.4606565 0 0 0 2.40647,1.92519 l 9.78637,0 a 2.4606565,2.4606565 0 0 0 2.16582,-1.20322 l 3.68992,-6.57776 3.69001,6.57776 a 2.4606565,2.4606565 0 0 0 2.1658,1.20322 l 9.86661,0 a 2.4606565,2.4606565 0 0 0 2.0054,-3.77017 l -9.94681,-14.920206 9.54572,-14.198214 a 2.4606565,2.4606565 0 0 0 -2.08561,-3.850422 l -9.86662,0 a 2.4606565,2.4606565 0 0 0 -2.0856,1.283451 l -3.2889,5.695367 -3.12837,-5.695367 a 2.4606565,2.4606565 0 0 0 -2.16583,-1.283451 l -9.86661,0 a 2.4606565,2.4606565 0 0 0 -2.00543,3.850422 l 9.38532,14.198214 -9.9468,14.920206 a 2.4606565,2.4606565 0 0 0 -0.32101,0.64175 l 0,-43.63759 a 2.4606565,2.4606565 0 0 0 -2.40649,-2.406466 l -8.74361,0 a 2.4606565,2.4606565 0 0 0 -0.48124,0 z"
       inkscape:connector-curvature="0"
       inkscape:export-filename="/home/lou/develop/codexion/cdx_icon.png"
       inkscape:export-xdpi="99.823914"
       inkscape:export-ydpi="99.823914" />
    <path
       id="path5093"
       style="font-style:normal;font-variant:normal;font-weight:bold;font-stretch:normal;font-size:medium;line-height:125%;font-family:'Droid Sans';-inkscape-font-specification:'Droid Sans Bold';text-align:start;letter-spacing:0px;word-spacing:0px;writing-mode:lr-tb;text-anchor:start;fill:#ffffff;fill-opacity:1;stroke:none"
       d="m 133.05294,88.382633 -10.25131,-15.576302 9.85265,0 5.29651,9.567893 5.38194,-9.567893 9.85266,0 -10.3937,15.576302 10.84931,16.259727 -9.85265,0 -5.83756,-10.308269 -5.83755,10.308269 -9.85265,0 10.79235,-16.259727 z m -32.5764,16.829237 q -2.448921,0 -4.470708,-1.0536 -2.021787,-1.05361 -3.474057,-3.10387 -1.452269,-2.078742 -2.27807,-5.154136 -0.797324,-3.075394 -0.797324,-7.118968 0,-4.100526 0.797324,-7.175921 0.825801,-3.10387 2.306546,-5.182608 1.509221,-2.107215 3.58796,-3.160822 2.078739,-1.053608 4.584619,-1.053608 1.53769,0 2.81911,0.370187 1.28141,0.34171 2.30654,0.996655 1.02514,0.626469 1.82246,1.480746 0.8258,0.8258 1.45227,1.822456 l 0.28476,0 q -0.17086,-1.11056 -0.31324,-2.249594 -0.14238,-0.96818 -0.25628,-2.050263 -0.0854,-1.110559 -0.0854,-2.050263 l 0,-10.194363 8.68514,0 0,44.308462 -6.63487,0 -1.68008,-4.129 -0.37019,0 q -0.59799,0.96817 -1.36684,1.85093 -0.76885,0.85427 -1.79398,1.48074 -0.99665,0.62647 -2.27807,0.99666 -1.25294,0.37018 -2.84759,0.37018 z m 3.16083,-6.919633 q 1.53769,0 2.61978,-0.512566 1.08208,-0.541041 1.73702,-1.594648 0.68343,-1.082084 0.99666,-2.676733 0.34171,-1.594648 0.37019,-3.730339 l 0,-0.939704 q 0,-2.306545 -0.28476,-4.100525 -0.28476,-1.79398 -0.93971,-2.989967 -0.65494,-1.224463 -1.7655,-1.850932 -1.11056,-0.626469 -2.79064,-0.626469 -2.73368,0 -4.015094,2.477401 -1.281415,2.448925 -1.281415,7.147444 0,4.698519 1.281415,7.062017 1.309894,2.335021 4.072054,2.335021 z m -28.447402,6.919633 q -3.417104,0 -6.179264,-0.9397 -2.733684,-0.9397 -4.698519,-2.90454 -1.93636,-1.99331 -2.989967,-5.068704 -1.025131,-3.10387 -1.025131,-7.403727 0,-4.755471 1.053607,-7.944769 1.082083,-3.217773 3.018443,-5.154133 1.964835,-1.936359 4.698519,-2.762159 2.762159,-0.825801 6.122312,-0.825801 2.448925,0 4.869375,0.597994 2.420449,0.597993 4.556139,1.680076 l -2.505876,6.606403 q -1.879408,-0.825801 -3.616436,-1.338366 -1.737029,-0.541042 -3.303202,-0.541042 -3.160822,0 -4.584615,2.420449 -1.423794,2.391974 -1.423794,7.204396 0,4.783947 1.423794,7.062017 1.423793,2.27807 4.470712,2.27807 2.477401,0 4.499188,-0.62647 2.021787,-0.654945 4.129001,-1.6516 l 0,7.232876 q -1.053607,0.51256 -2.050262,0.91122 -0.996656,0.39867 -2.021787,0.65495 -0.996656,0.25628 -2.107215,0.37018 -1.082083,0.14238 -2.335022,0.14238 z" />
    <path
       id="path5102"
       style="font-style:italic;font-variant:normal;font-weight:normal;font-stretch:normal;font-size:24.52796173px;line-height:125%;font-family:'Droid Serif';-inkscape-font-specification:'Droid Serif Italic';text-align:start;writing-mode:lr-tb;text-anchor:start;fill:#747474;fill-opacity:1;stroke:none"
       d="m 76.506485,49.450932 q -0.215578,-0.718593 -0.586851,-1.00603 -0.371273,-0.299413 -1.101842,-0.299413 l -0.251507,0 0.191624,-1.029983 3.580987,0 1.916247,6.623029 q 0.886264,3.077971 1.029983,4.443297 l 0.07186,0 q 3.317503,-5.042125 3.317503,-8.14405 0,-1.329396 -1.209631,-1.329396 0,-0.826381 0.479062,-1.31742 0.479061,-0.491038 1.125795,-0.491038 1.664739,0 1.664739,2.059966 0,2.958206 -3.305526,8.323697 -3.305526,5.353516 -5.305609,7.114068 -1.988106,1.760551 -5.245726,1.760551 -1.293467,0 -2.311473,-0.443132 l 0.371273,-1.233584 q 0.862311,0.275461 1.916247,0.275461 3.509127,0 6.886513,-4.467251 L 76.506485,49.450932 Z m -12.731066,10.180062 -1.101842,0.706616 -0.790452,0 3.245643,-15.234164 q 0.215578,-1.006029 0.215578,-1.293466 0,-1.149749 -1.712646,-1.149749 l -0.203601,0 0.227554,-1.029982 4.634923,0 -1.173702,5.50921 q -0.251507,1.185678 -0.886264,3.245643 l 0.119766,0 q 1.808458,-3.509127 4.491204,-3.509127 1.461138,0 2.287519,1.125795 0.826382,1.125795 0.826382,3.305526 0,3.413315 -2.107872,6.311639 -2.107872,2.886347 -5.19782,2.886347 -1.760552,0 -2.87437,-0.874288 z m 0.862311,-1.101842 q 0.742546,0.874288 1.90427,0.874288 2.131825,0 3.521104,-2.718676 1.389279,-2.718675 1.389279,-5.401421 0,-2.862394 -1.544974,-2.862394 -1.341373,0 -2.622863,1.868341 -1.269514,1.856364 -1.59288,3.377385 l -1.053936,4.862477 z" />
  </g>
</svg>
